<?xml version="1.0" encoding="UTF-8" standalone="no"?>
<!DOCTYPE svg PUBLIC "-//W3C//DTD SVG 1.1//EN"
 "http://www.w3.org/Graphics/SVG/1.1/DTD/svg11.dtd">
<!-- Generated by graphviz version 2.40.1 (20161225.0304)
 -->
<!-- Title: Tree Pages: 1 -->
<svg width="1361pt" height="845pt"
 viewBox="0.00 0.00 1361.10 844.80" xmlns="http://www.w3.org/2000/svg" xmlns:xlink="http://www.w3.org/1999/xlink">
<g id="graph0" class="graph" transform="scale(1 1) rotate(0) translate(4 840.8)">
<title>Tree</title>
<polygon fill="#ffffff" stroke="transparent" points="-4,4 -4,-840.8 1357.103,-840.8 1357.103,4 -4,4"/>
<!-- 0 -->
<g id="node1" class="node">
<title>0</title>
<path fill="#88c4ef" stroke="#000000" d="M859.4589,-836.9003C859.4589,-836.9003 724.8615,-836.9003 724.8615,-836.9003 718.8615,-836.9003 712.8615,-830.9003 712.8615,-824.9003 712.8615,-824.9003 712.8615,-773.4997 712.8615,-773.4997 712.8615,-767.4997 718.8615,-761.4997 724.8615,-761.4997 724.8615,-761.4997 859.4589,-761.4997 859.4589,-761.4997 865.4589,-761.4997 871.4589,-767.4997 871.4589,-773.4997 871.4589,-773.4997 871.4589,-824.9003 871.4589,-824.9003 871.4589,-830.9003 865.4589,-836.9003 859.4589,-836.9003"/>
<text text-anchor="middle" x="792.1602" y="-820.2" font-family="Helvetica,sans-Serif" font-size="14.00" fill="#000000">X[12] &lt;= 5743.5</text>
<text text-anchor="middle" x="792.1602" y="-803.4" font-family="Helvetica,sans-Serif" font-size="14.00" fill="#000000">gini = 0.408</text>
<text text-anchor="middle" x="792.1602" y="-786.6" font-family="Helvetica,sans-Serif" font-size="14.00" fill="#000000">samples = 37578</text>
<text text-anchor="middle" x="792.1602" y="-769.8" font-family="Helvetica,sans-Serif" font-size="14.00" fill="#000000">value = [10744, 26834]</text>
</g>
<!-- 1 -->
<g id="node2" class="node">
<title>1</title>
<path fill="#eead7e" stroke="#000000" d="M777.6762,-725.7003C777.6762,-725.7003 650.6442,-725.7003 650.6442,-725.7003 644.6442,-725.7003 638.6442,-719.7003 638.6442,-713.7003 638.6442,-713.7003 638.6442,-662.2997 638.6442,-662.2997 638.6442,-656.2997 644.6442,-650.2997 650.6442,-650.2997 650.6442,-650.2997 777.6762,-650.2997 777.6762,-650.2997 783.6762,-650.2997 789.6762,-656.2997 789.6762,-662.2997 789.6762,-662.2997 789.6762,-713.7003 789.6762,-713.7003 789.6762,-719.7003 783.6762,-725.7003 777.6762,-725.7003"/>
<text text-anchor="middle" x="714.1602" y="-709" font-family="Helvetica,sans-Serif" font-size="14.00" fill="#000000">X[4] &lt;= 13204.5</text>
<text text-anchor="middle" x="714.1602" y="-692.2" font-family="Helvetica,sans-Serif" font-size="14.00" fill="#000000">gini = 0.384</text>
<text text-anchor="middle" x="714.1602" y="-675.4" font-family="Helvetica,sans-Serif" font-size="14.00" fill="#000000">samples = 14507</text>
<text text-anchor="middle" x="714.1602" y="-658.6" font-family="Helvetica,sans-Serif" font-size="14.00" fill="#000000">value = [10744, 3763]</text>
</g>
<!-- 0&#45;&gt;1 -->
<g id="edge1" class="edge">
<title>0&#45;&gt;1</title>
<path fill="none" stroke="#000000" d="M765.753,-761.5528C759.5268,-752.6765 752.821,-743.1165 746.3709,-733.9209"/>
<polygon fill="#000000" stroke="#000000" points="749.1482,-731.7854 740.5402,-725.6085 743.4174,-735.8052 749.1482,-731.7854"/>
<text text-anchor="middle" x="736.2194" y="-746.0322" font-family="Helvetica,sans-Serif" font-size="14.00" fill="#000000">True</text>
</g>
<!-- 34 -->
<g id="node35" class="node">
<title>34</title>
<path fill="#399de5" stroke="#000000" d="M922.8288,-717.4014C922.8288,-717.4014 819.4916,-717.4014 819.4916,-717.4014 813.4916,-717.4014 807.4916,-711.4014 807.4916,-705.4014 807.4916,-705.4014 807.4916,-670.5986 807.4916,-670.5986 807.4916,-664.5986 813.4916,-658.5986 819.4916,-658.5986 819.4916,-658.5986 922.8288,-658.5986 922.8288,-658.5986 928.8288,-658.5986 934.8288,-664.5986 934.8288,-670.5986 934.8288,-670.5986 934.8288,-705.4014 934.8288,-705.4014 934.8288,-711.4014 928.8288,-717.4014 922.8288,-717.4014"/>
<text text-anchor="middle" x="871.1602" y="-700.6" font-family="Helvetica,sans-Serif" font-size="14.00" fill="#000000">gini = 0.0</text>
<text text-anchor="middle" x="871.1602" y="-683.8" font-family="Helvetica,sans-Serif" font-size="14.00" fill="#000000">samples = 23071</text>
<text text-anchor="middle" x="871.1602" y="-667" font-family="Helvetica,sans-Serif" font-size="14.00" fill="#000000">value = [0, 23071]</text>
</g>
<!-- 0&#45;&gt;34 -->
<g id="edge34" class="edge">
<title>0&#45;&gt;34</title>
<path fill="none" stroke="#000000" d="M818.906,-761.5528C827.1186,-749.9928 836.1551,-737.273 844.3706,-725.7089"/>
<polygon fill="#000000" stroke="#000000" points="847.2458,-727.7051 850.1841,-717.5258 841.5392,-723.651 847.2458,-727.7051"/>
<text text-anchor="middle" x="854.3571" y="-737.9751" font-family="Helvetica,sans-Serif" font-size="14.00" fill="#000000">False</text>
</g>
<!-- 2 -->
<g id="node3" class="node">
<title>2</title>
<path fill="#e99254" stroke="#000000" d="M521.8938,-614.5003C521.8938,-614.5003 402.4266,-614.5003 402.4266,-614.5003 396.4266,-614.5003 390.4266,-608.5003 390.4266,-602.5003 390.4266,-602.5003 390.4266,-551.0997 390.4266,-551.0997 390.4266,-545.0997 396.4266,-539.0997 402.4266,-539.0997 402.4266,-539.0997 521.8938,-539.0997 521.8938,-539.0997 527.8938,-539.0997 533.8938,-545.0997 533.8938,-551.0997 533.8938,-551.0997 533.8938,-602.5003 533.8938,-602.5003 533.8938,-608.5003 527.8938,-614.5003 521.8938,-614.5003"/>
<text text-anchor="middle" x="462.1602" y="-597.8" font-family="Helvetica,sans-Serif" font-size="14.00" fill="#000000">X[6] &lt;= 933.979</text>
<text text-anchor="middle" x="462.1602" y="-581" font-family="Helvetica,sans-Serif" font-size="14.00" fill="#000000">gini = 0.211</text>
<text text-anchor="middle" x="462.1602" y="-564.2" font-family="Helvetica,sans-Serif" font-size="14.00" fill="#000000">samples = 10376</text>
<text text-anchor="middle" x="462.1602" y="-547.4" font-family="Helvetica,sans-Serif" font-size="14.00" fill="#000000">value = [9131, 1245]</text>
</g>
<!-- 1&#45;&gt;2 -->
<g id="edge2" class="edge">
<title>1&#45;&gt;2</title>
<path fill="none" stroke="#000000" d="M638.5519,-654.6363C608.4647,-641.3597 573.7877,-626.0579 543.1851,-612.5538"/>
<polygon fill="#000000" stroke="#000000" points="544.39,-609.26 533.8281,-608.4249 541.564,-615.6642 544.39,-609.26"/>
</g>
<!-- 21 -->
<g id="node22" class="node">
<title>21</title>
<path fill="#b8dcf6" stroke="#000000" d="M1013.8938,-614.5003C1013.8938,-614.5003 894.4266,-614.5003 894.4266,-614.5003 888.4266,-614.5003 882.4266,-608.5003 882.4266,-602.5003 882.4266,-602.5003 882.4266,-551.0997 882.4266,-551.0997 882.4266,-545.0997 888.4266,-539.0997 894.4266,-539.0997 894.4266,-539.0997 1013.8938,-539.0997 1013.8938,-539.0997 1019.8938,-539.0997 1025.8938,-545.0997 1025.8938,-551.0997 1025.8938,-551.0997 1025.8938,-602.5003 1025.8938,-602.5003 1025.8938,-608.5003 1019.8938,-614.5003 1013.8938,-614.5003"/>
<text text-anchor="middle" x="954.1602" y="-597.8" font-family="Helvetica,sans-Serif" font-size="14.00" fill="#000000">X[6] &lt;= 939.62</text>
<text text-anchor="middle" x="954.1602" y="-581" font-family="Helvetica,sans-Serif" font-size="14.00" fill="#000000">gini = 0.476</text>
<text text-anchor="middle" x="954.1602" y="-564.2" font-family="Helvetica,sans-Serif" font-size="14.00" fill="#000000">samples = 4131</text>
<text text-anchor="middle" x="954.1602" y="-547.4" font-family="Helvetica,sans-Serif" font-size="14.00" fill="#000000">value = [1613, 2518]</text>
</g>
<!-- 1&#45;&gt;21 -->
<g id="edge21" class="edge">
<title>1&#45;&gt;21</title>
<path fill="none" stroke="#000000" d="M789.7683,-652.9683C816.1936,-640.7245 845.9622,-626.9317 872.8338,-614.4812"/>
<polygon fill="#000000" stroke="#000000" points="874.6056,-617.5178 882.2076,-610.1381 871.6627,-611.1664 874.6056,-617.5178"/>
</g>
<!-- 3 -->
<g id="node4" class="node">
<title>3</title>
<path fill="#3d9fe6" stroke="#000000" d="M293.0459,-503.3003C293.0459,-503.3003 197.2745,-503.3003 197.2745,-503.3003 191.2745,-503.3003 185.2745,-497.3003 185.2745,-491.3003 185.2745,-491.3003 185.2745,-439.8997 185.2745,-439.8997 185.2745,-433.8997 191.2745,-427.8997 197.2745,-427.8997 197.2745,-427.8997 293.0459,-427.8997 293.0459,-427.8997 299.0459,-427.8997 305.0459,-433.8997 305.0459,-439.8997 305.0459,-439.8997 305.0459,-491.3003 305.0459,-491.3003 305.0459,-497.3003 299.0459,-503.3003 293.0459,-503.3003"/>
<text text-anchor="middle" x="245.1602" y="-486.6" font-family="Helvetica,sans-Serif" font-size="14.00" fill="#000000">X[12] &lt;= 36.5</text>
<text text-anchor="middle" x="245.1602" y="-469.8" font-family="Helvetica,sans-Serif" font-size="14.00" fill="#000000">gini = 0.041</text>
<text text-anchor="middle" x="245.1602" y="-453" font-family="Helvetica,sans-Serif" font-size="14.00" fill="#000000">samples = 620</text>
<text text-anchor="middle" x="245.1602" y="-436.2" font-family="Helvetica,sans-Serif" font-size="14.00" fill="#000000">value = [13, 607]</text>
</g>
<!-- 2&#45;&gt;3 -->
<g id="edge3" class="edge">
<title>2&#45;&gt;3</title>
<path fill="none" stroke="#000000" d="M390.5049,-540.0808C365.9843,-527.5154 338.6148,-513.4901 314.297,-501.0286"/>
<polygon fill="#000000" stroke="#000000" points="315.6345,-497.7812 305.1387,-496.3355 312.4421,-504.0109 315.6345,-497.7812"/>
</g>
<!-- 6 -->
<g id="node7" class="node">
<title>6</title>
<path fill="#e78a47" stroke="#000000" d="M518.1118,-503.3003C518.1118,-503.3003 406.2086,-503.3003 406.2086,-503.3003 400.2086,-503.3003 394.2086,-497.3003 394.2086,-491.3003 394.2086,-491.3003 394.2086,-439.8997 394.2086,-439.8997 394.2086,-433.8997 400.2086,-427.8997 406.2086,-427.8997 406.2086,-427.8997 518.1118,-427.8997 518.1118,-427.8997 524.1118,-427.8997 530.1118,-433.8997 530.1118,-439.8997 530.1118,-439.8997 530.1118,-491.3003 530.1118,-491.3003 530.1118,-497.3003 524.1118,-503.3003 518.1118,-503.3003"/>
<text text-anchor="middle" x="462.1602" y="-486.6" font-family="Helvetica,sans-Serif" font-size="14.00" fill="#000000">X[1] &lt;= 57.445</text>
<text text-anchor="middle" x="462.1602" y="-469.8" font-family="Helvetica,sans-Serif" font-size="14.00" fill="#000000">gini = 0.122</text>
<text text-anchor="middle" x="462.1602" y="-453" font-family="Helvetica,sans-Serif" font-size="14.00" fill="#000000">samples = 9756</text>
<text text-anchor="middle" x="462.1602" y="-436.2" font-family="Helvetica,sans-Serif" font-size="14.00" fill="#000000">value = [9118, 638]</text>
</g>
<!-- 2&#45;&gt;6 -->
<g id="edge6" class="edge">
<title>2&#45;&gt;6</title>
<path fill="none" stroke="#000000" d="M462.1602,-539.1528C462.1602,-530.82 462.1602,-521.8845 462.1602,-513.2137"/>
<polygon fill="#000000" stroke="#000000" points="465.6603,-513.2084 462.1602,-503.2085 458.6603,-513.2085 465.6603,-513.2084"/>
</g>
<!-- 4 -->
<g id="node5" class="node">
<title>4</title>
<path fill="#e58139" stroke="#000000" d="M159.4811,-383.8014C159.4811,-383.8014 78.8393,-383.8014 78.8393,-383.8014 72.8393,-383.8014 66.8393,-377.8014 66.8393,-371.8014 66.8393,-371.8014 66.8393,-336.9986 66.8393,-336.9986 66.8393,-330.9986 72.8393,-324.9986 78.8393,-324.9986 78.8393,-324.9986 159.4811,-324.9986 159.4811,-324.9986 165.4811,-324.9986 171.4811,-330.9986 171.4811,-336.9986 171.4811,-336.9986 171.4811,-371.8014 171.4811,-371.8014 171.4811,-377.8014 165.4811,-383.8014 159.4811,-383.8014"/>
<text text-anchor="middle" x="119.1602" y="-367" font-family="Helvetica,sans-Serif" font-size="14.00" fill="#000000">gini = 0.0</text>
<text text-anchor="middle" x="119.1602" y="-350.2" font-family="Helvetica,sans-Serif" font-size="14.00" fill="#000000">samples = 13</text>
<text text-anchor="middle" x="119.1602" y="-333.4" font-family="Helvetica,sans-Serif" font-size="14.00" fill="#000000">value = [13, 0]</text>
</g>
<!-- 3&#45;&gt;4 -->
<g id="edge4" class="edge">
<title>3&#45;&gt;4</title>
<path fill="none" stroke="#000000" d="M202.5023,-427.9528C188.8952,-415.9439 173.8697,-402.6833 160.3674,-390.767"/>
<polygon fill="#000000" stroke="#000000" points="162.4294,-387.9187 152.6157,-383.9258 157.7975,-393.1671 162.4294,-387.9187"/>
</g>
<!-- 5 -->
<g id="node6" class="node">
<title>5</title>
<path fill="#399de5" stroke="#000000" d="M289.2632,-383.8014C289.2632,-383.8014 201.0572,-383.8014 201.0572,-383.8014 195.0572,-383.8014 189.0572,-377.8014 189.0572,-371.8014 189.0572,-371.8014 189.0572,-336.9986 189.0572,-336.9986 189.0572,-330.9986 195.0572,-324.9986 201.0572,-324.9986 201.0572,-324.9986 289.2632,-324.9986 289.2632,-324.9986 295.2632,-324.9986 301.2632,-330.9986 301.2632,-336.9986 301.2632,-336.9986 301.2632,-371.8014 301.2632,-371.8014 301.2632,-377.8014 295.2632,-383.8014 289.2632,-383.8014"/>
<text text-anchor="middle" x="245.1602" y="-367" font-family="Helvetica,sans-Serif" font-size="14.00" fill="#000000">gini = 0.0</text>
<text text-anchor="middle" x="245.1602" y="-350.2" font-family="Helvetica,sans-Serif" font-size="14.00" fill="#000000">samples = 607</text>
<text text-anchor="middle" x="245.1602" y="-333.4" font-family="Helvetica,sans-Serif" font-size="14.00" fill="#000000">value = [0, 607]</text>
</g>
<!-- 3&#45;&gt;5 -->
<g id="edge5" class="edge">
<title>3&#45;&gt;5</title>
<path fill="none" stroke="#000000" d="M245.1602,-427.9528C245.1602,-417.0662 245.1602,-405.151 245.1602,-394.1411"/>
<polygon fill="#000000" stroke="#000000" points="248.6603,-393.9258 245.1602,-383.9258 241.6603,-393.9259 248.6603,-393.9258"/>
</g>
<!-- 7 -->
<g id="node8" class="node">
<title>7</title>
<path fill="#e68742" stroke="#000000" d="M443.1118,-392.1003C443.1118,-392.1003 331.2086,-392.1003 331.2086,-392.1003 325.2086,-392.1003 319.2086,-386.1003 319.2086,-380.1003 319.2086,-380.1003 319.2086,-328.6997 319.2086,-328.6997 319.2086,-322.6997 325.2086,-316.6997 331.2086,-316.6997 331.2086,-316.6997 443.1118,-316.6997 443.1118,-316.6997 449.1118,-316.6997 455.1118,-322.6997 455.1118,-328.6997 455.1118,-328.6997 455.1118,-380.1003 455.1118,-380.1003 455.1118,-386.1003 449.1118,-392.1003 443.1118,-392.1003"/>
<text text-anchor="middle" x="387.1602" y="-375.4" font-family="Helvetica,sans-Serif" font-size="14.00" fill="#000000">X[12] &lt;= 3319.5</text>
<text text-anchor="middle" x="387.1602" y="-358.6" font-family="Helvetica,sans-Serif" font-size="14.00" fill="#000000">gini = 0.083</text>
<text text-anchor="middle" x="387.1602" y="-341.8" font-family="Helvetica,sans-Serif" font-size="14.00" fill="#000000">samples = 9493</text>
<text text-anchor="middle" x="387.1602" y="-325" font-family="Helvetica,sans-Serif" font-size="14.00" fill="#000000">value = [9079, 414]</text>
</g>
<!-- 6&#45;&gt;7 -->
<g id="edge7" class="edge">
<title>6&#45;&gt;7</title>
<path fill="none" stroke="#000000" d="M436.7686,-427.9528C430.782,-419.0765 424.3341,-409.5165 418.132,-400.3209"/>
<polygon fill="#000000" stroke="#000000" points="421.019,-398.342 412.5256,-392.0085 415.2156,-402.2561 421.019,-398.342"/>
</g>
<!-- 16 -->
<g id="node17" class="node">
<title>16</title>
<path fill="#5baeea" stroke="#000000" d="M581.0459,-392.1003C581.0459,-392.1003 485.2745,-392.1003 485.2745,-392.1003 479.2745,-392.1003 473.2745,-386.1003 473.2745,-380.1003 473.2745,-380.1003 473.2745,-328.6997 473.2745,-328.6997 473.2745,-322.6997 479.2745,-316.6997 485.2745,-316.6997 485.2745,-316.6997 581.0459,-316.6997 581.0459,-316.6997 587.0459,-316.6997 593.0459,-322.6997 593.0459,-328.6997 593.0459,-328.6997 593.0459,-380.1003 593.0459,-380.1003 593.0459,-386.1003 587.0459,-392.1003 581.0459,-392.1003"/>
<text text-anchor="middle" x="533.1602" y="-375.4" font-family="Helvetica,sans-Serif" font-size="14.00" fill="#000000">X[4] &lt;= 13089.0</text>
<text text-anchor="middle" x="533.1602" y="-358.6" font-family="Helvetica,sans-Serif" font-size="14.00" fill="#000000">gini = 0.253</text>
<text text-anchor="middle" x="533.1602" y="-341.8" font-family="Helvetica,sans-Serif" font-size="14.00" fill="#000000">samples = 263</text>
<text text-anchor="middle" x="533.1602" y="-325" font-family="Helvetica,sans-Serif" font-size="14.00" fill="#000000">value = [39, 224]</text>
</g>
<!-- 6&#45;&gt;16 -->
<g id="edge16" class="edge">
<title>6&#45;&gt;16</title>
<path fill="none" stroke="#000000" d="M486.1976,-427.9528C491.8071,-419.1671 497.8444,-409.7115 503.6604,-400.6025"/>
<polygon fill="#000000" stroke="#000000" points="506.716,-402.3205 509.1476,-392.0085 500.8161,-398.5534 506.716,-402.3205"/>
</g>
<!-- 8 -->
<g id="node9" class="node">
<title>8</title>
<path fill="#e58139" stroke="#000000" d="M289.0459,-280.9003C289.0459,-280.9003 193.2745,-280.9003 193.2745,-280.9003 187.2745,-280.9003 181.2745,-274.9003 181.2745,-268.9003 181.2745,-268.9003 181.2745,-217.4997 181.2745,-217.4997 181.2745,-211.4997 187.2745,-205.4997 193.2745,-205.4997 193.2745,-205.4997 289.0459,-205.4997 289.0459,-205.4997 295.0459,-205.4997 301.0459,-211.4997 301.0459,-217.4997 301.0459,-217.4997 301.0459,-268.9003 301.0459,-268.9003 301.0459,-274.9003 295.0459,-280.9003 289.0459,-280.9003"/>
<text text-anchor="middle" x="241.1602" y="-264.2" font-family="Helvetica,sans-Serif" font-size="14.00" fill="#000000">X[12] &lt;= 4.5</text>
<text text-anchor="middle" x="241.1602" y="-247.4" font-family="Helvetica,sans-Serif" font-size="14.00" fill="#000000">gini = 0.001</text>
<text text-anchor="middle" x="241.1602" y="-230.6" font-family="Helvetica,sans-Serif" font-size="14.00" fill="#000000">samples = 7523</text>
<text text-anchor="middle" x="241.1602" y="-213.8" font-family="Helvetica,sans-Serif" font-size="14.00" fill="#000000">value = [7521, 2]</text>
</g>
<!-- 7&#45;&gt;8 -->
<g id="edge8" class="edge">
<title>7&#45;&gt;8</title>
<path fill="none" stroke="#000000" d="M337.7313,-316.7528C325.1259,-307.1519 311.4701,-296.7511 298.5056,-286.8768"/>
<polygon fill="#000000" stroke="#000000" points="300.6143,-284.0833 290.5382,-280.8085 296.3729,-289.652 300.6143,-284.0833"/>
</g>
<!-- 13 -->
<g id="node14" class="node">
<title>13</title>
<path fill="#eca26d" stroke="#000000" d="M443.1118,-280.9003C443.1118,-280.9003 331.2086,-280.9003 331.2086,-280.9003 325.2086,-280.9003 319.2086,-274.9003 319.2086,-268.9003 319.2086,-268.9003 319.2086,-217.4997 319.2086,-217.4997 319.2086,-211.4997 325.2086,-205.4997 331.2086,-205.4997 331.2086,-205.4997 443.1118,-205.4997 443.1118,-205.4997 449.1118,-205.4997 455.1118,-211.4997 455.1118,-217.4997 455.1118,-217.4997 455.1118,-268.9003 455.1118,-268.9003 455.1118,-274.9003 449.1118,-280.9003 443.1118,-280.9003"/>
<text text-anchor="middle" x="387.1602" y="-264.2" font-family="Helvetica,sans-Serif" font-size="14.00" fill="#000000">X[6] &lt;= 938.561</text>
<text text-anchor="middle" x="387.1602" y="-247.4" font-family="Helvetica,sans-Serif" font-size="14.00" fill="#000000">gini = 0.331</text>
<text text-anchor="middle" x="387.1602" y="-230.6" font-family="Helvetica,sans-Serif" font-size="14.00" fill="#000000">samples = 1970</text>
<text text-anchor="middle" x="387.1602" y="-213.8" font-family="Helvetica,sans-Serif" font-size="14.00" fill="#000000">value = [1558, 412]</text>
</g>
<!-- 7&#45;&gt;13 -->
<g id="edge13" class="edge">
<title>7&#45;&gt;13</title>
<path fill="none" stroke="#000000" d="M387.1602,-316.7528C387.1602,-308.42 387.1602,-299.4845 387.1602,-290.8137"/>
<polygon fill="#000000" stroke="#000000" points="390.6603,-290.8084 387.1602,-280.8085 383.6603,-290.8085 390.6603,-290.8084"/>
</g>
<!-- 9 -->
<g id="node10" class="node">
<title>9</title>
<path fill="#ea985d" stroke="#000000" d="M152.9947,-169.7003C152.9947,-169.7003 69.3257,-169.7003 69.3257,-169.7003 63.3257,-169.7003 57.3257,-163.7003 57.3257,-157.7003 57.3257,-157.7003 57.3257,-106.2997 57.3257,-106.2997 57.3257,-100.2997 63.3257,-94.2997 69.3257,-94.2997 69.3257,-94.2997 152.9947,-94.2997 152.9947,-94.2997 158.9947,-94.2997 164.9947,-100.2997 164.9947,-106.2997 164.9947,-106.2997 164.9947,-157.7003 164.9947,-157.7003 164.9947,-163.7003 158.9947,-169.7003 152.9947,-169.7003"/>
<text text-anchor="middle" x="111.1602" y="-153" font-family="Helvetica,sans-Serif" font-size="14.00" fill="#000000">X[10] &lt;= 2.375</text>
<text text-anchor="middle" x="111.1602" y="-136.2" font-family="Helvetica,sans-Serif" font-size="14.00" fill="#000000">gini = 0.26</text>
<text text-anchor="middle" x="111.1602" y="-119.4" font-family="Helvetica,sans-Serif" font-size="14.00" fill="#000000">samples = 13</text>
<text text-anchor="middle" x="111.1602" y="-102.6" font-family="Helvetica,sans-Serif" font-size="14.00" fill="#000000">value = [11, 2]</text>
</g>
<!-- 8&#45;&gt;9 -->
<g id="edge9" class="edge">
<title>8&#45;&gt;9</title>
<path fill="none" stroke="#000000" d="M197.1481,-205.5528C186.1359,-196.1331 174.2234,-185.9433 162.8752,-176.2362"/>
<polygon fill="#000000" stroke="#000000" points="165.0012,-173.449 155.1269,-169.6085 160.451,-178.7684 165.0012,-173.449"/>
</g>
<!-- 12 -->
<g id="node13" class="node">
<title>12</title>
<path fill="#e58139" stroke="#000000" d="M291.0459,-161.4014C291.0459,-161.4014 195.2745,-161.4014 195.2745,-161.4014 189.2745,-161.4014 183.2745,-155.4014 183.2745,-149.4014 183.2745,-149.4014 183.2745,-114.5986 183.2745,-114.5986 183.2745,-108.5986 189.2745,-102.5986 195.2745,-102.5986 195.2745,-102.5986 291.0459,-102.5986 291.0459,-102.5986 297.0459,-102.5986 303.0459,-108.5986 303.0459,-114.5986 303.0459,-114.5986 303.0459,-149.4014 303.0459,-149.4014 303.0459,-155.4014 297.0459,-161.4014 291.0459,-161.4014"/>
<text text-anchor="middle" x="243.1602" y="-144.6" font-family="Helvetica,sans-Serif" font-size="14.00" fill="#000000">gini = 0.0</text>
<text text-anchor="middle" x="243.1602" y="-127.8" font-family="Helvetica,sans-Serif" font-size="14.00" fill="#000000">samples = 7510</text>
<text text-anchor="middle" x="243.1602" y="-111" font-family="Helvetica,sans-Serif" font-size="14.00" fill="#000000">value = [7510, 0]</text>
</g>
<!-- 8&#45;&gt;12 -->
<g id="edge12" class="edge">
<title>8&#45;&gt;12</title>
<path fill="none" stroke="#000000" d="M241.8373,-205.5528C242.0331,-194.6662 242.2474,-182.751 242.4454,-171.7411"/>
<polygon fill="#000000" stroke="#000000" points="245.9487,-171.5872 242.6292,-161.5258 238.9498,-171.4612 245.9487,-171.5872"/>
</g>
<!-- 10 -->
<g id="node11" class="node">
<title>10</title>
<path fill="#e58139" stroke="#000000" d="M92.4811,-58.6014C92.4811,-58.6014 11.8393,-58.6014 11.8393,-58.6014 5.8393,-58.6014 -.1607,-52.6014 -.1607,-46.6014 -.1607,-46.6014 -.1607,-11.7986 -.1607,-11.7986 -.1607,-5.7986 5.8393,.2014 11.8393,.2014 11.8393,.2014 92.4811,.2014 92.4811,.2014 98.4811,.2014 104.4811,-5.7986 104.4811,-11.7986 104.4811,-11.7986 104.4811,-46.6014 104.4811,-46.6014 104.4811,-52.6014 98.4811,-58.6014 92.4811,-58.6014"/>
<text text-anchor="middle" x="52.1602" y="-41.8" font-family="Helvetica,sans-Serif" font-size="14.00" fill="#000000">gini = 0.0</text>
<text text-anchor="middle" x="52.1602" y="-25" font-family="Helvetica,sans-Serif" font-size="14.00" fill="#000000">samples = 11</text>
<text text-anchor="middle" x="52.1602" y="-8.2" font-family="Helvetica,sans-Serif" font-size="14.00" fill="#000000">value = [11, 0]</text>
</g>
<!-- 9&#45;&gt;10 -->
<g id="edge10" class="edge">
<title>9&#45;&gt;10</title>
<path fill="none" stroke="#000000" d="M89.5258,-94.3048C84.4976,-85.5437 79.1404,-76.2096 74.0992,-67.4259"/>
<polygon fill="#000000" stroke="#000000" points="77.0004,-65.4495 68.987,-58.5186 70.9292,-68.9339 77.0004,-65.4495"/>
</g>
<!-- 11 -->
<g id="node12" class="node">
<title>11</title>
<path fill="#399de5" stroke="#000000" d="M206.1991,-58.6014C206.1991,-58.6014 134.1213,-58.6014 134.1213,-58.6014 128.1213,-58.6014 122.1213,-52.6014 122.1213,-46.6014 122.1213,-46.6014 122.1213,-11.7986 122.1213,-11.7986 122.1213,-5.7986 128.1213,.2014 134.1213,.2014 134.1213,.2014 206.1991,.2014 206.1991,.2014 212.1991,.2014 218.1991,-5.7986 218.1991,-11.7986 218.1991,-11.7986 218.1991,-46.6014 218.1991,-46.6014 218.1991,-52.6014 212.1991,-58.6014 206.1991,-58.6014"/>
<text text-anchor="middle" x="170.1602" y="-41.8" font-family="Helvetica,sans-Serif" font-size="14.00" fill="#000000">gini = 0.0</text>
<text text-anchor="middle" x="170.1602" y="-25" font-family="Helvetica,sans-Serif" font-size="14.00" fill="#000000">samples = 2</text>
<text text-anchor="middle" x="170.1602" y="-8.2" font-family="Helvetica,sans-Serif" font-size="14.00" fill="#000000">value = [0, 2]</text>
</g>
<!-- 9&#45;&gt;11 -->
<g id="edge11" class="edge">
<title>9&#45;&gt;11</title>
<path fill="none" stroke="#000000" d="M132.7946,-94.3048C137.8228,-85.5437 143.18,-76.2096 148.2212,-67.4259"/>
<polygon fill="#000000" stroke="#000000" points="151.3912,-68.9339 153.3334,-58.5186 145.32,-65.4495 151.3912,-68.9339"/>
</g>
<!-- 14 -->
<g id="node15" class="node">
<title>14</title>
<path fill="#e58139" stroke="#000000" d="M433.0459,-161.4014C433.0459,-161.4014 337.2745,-161.4014 337.2745,-161.4014 331.2745,-161.4014 325.2745,-155.4014 325.2745,-149.4014 325.2745,-149.4014 325.2745,-114.5986 325.2745,-114.5986 325.2745,-108.5986 331.2745,-102.5986 337.2745,-102.5986 337.2745,-102.5986 433.0459,-102.5986 433.0459,-102.5986 439.0459,-102.5986 445.0459,-108.5986 445.0459,-114.5986 445.0459,-114.5986 445.0459,-149.4014 445.0459,-149.4014 445.0459,-155.4014 439.0459,-161.4014 433.0459,-161.4014"/>
<text text-anchor="middle" x="385.1602" y="-144.6" font-family="Helvetica,sans-Serif" font-size="14.00" fill="#000000">gini = 0.0</text>
<text text-anchor="middle" x="385.1602" y="-127.8" font-family="Helvetica,sans-Serif" font-size="14.00" fill="#000000">samples = 1558</text>
<text text-anchor="middle" x="385.1602" y="-111" font-family="Helvetica,sans-Serif" font-size="14.00" fill="#000000">value = [1558, 0]</text>
</g>
<!-- 13&#45;&gt;14 -->
<g id="edge14" class="edge">
<title>13&#45;&gt;14</title>
<path fill="none" stroke="#000000" d="M386.4831,-205.5528C386.2873,-194.6662 386.073,-182.751 385.875,-171.7411"/>
<polygon fill="#000000" stroke="#000000" points="389.3706,-171.4612 385.6912,-161.5258 382.3717,-171.5872 389.3706,-171.4612"/>
</g>
<!-- 15 -->
<g id="node16" class="node">
<title>15</title>
<path fill="#399de5" stroke="#000000" d="M563.2632,-161.4014C563.2632,-161.4014 475.0572,-161.4014 475.0572,-161.4014 469.0572,-161.4014 463.0572,-155.4014 463.0572,-149.4014 463.0572,-149.4014 463.0572,-114.5986 463.0572,-114.5986 463.0572,-108.5986 469.0572,-102.5986 475.0572,-102.5986 475.0572,-102.5986 563.2632,-102.5986 563.2632,-102.5986 569.2632,-102.5986 575.2632,-108.5986 575.2632,-114.5986 575.2632,-114.5986 575.2632,-149.4014 575.2632,-149.4014 575.2632,-155.4014 569.2632,-161.4014 563.2632,-161.4014"/>
<text text-anchor="middle" x="519.1602" y="-144.6" font-family="Helvetica,sans-Serif" font-size="14.00" fill="#000000">gini = 0.0</text>
<text text-anchor="middle" x="519.1602" y="-127.8" font-family="Helvetica,sans-Serif" font-size="14.00" fill="#000000">samples = 412</text>
<text text-anchor="middle" x="519.1602" y="-111" font-family="Helvetica,sans-Serif" font-size="14.00" fill="#000000">value = [0, 412]</text>
</g>
<!-- 13&#45;&gt;15 -->
<g id="edge15" class="edge">
<title>13&#45;&gt;15</title>
<path fill="none" stroke="#000000" d="M431.8494,-205.5528C446.2378,-193.4316 462.1399,-180.0353 476.3869,-168.0332"/>
<polygon fill="#000000" stroke="#000000" points="478.7186,-170.6454 484.1115,-161.5258 474.2086,-165.2919 478.7186,-170.6454"/>
</g>
<!-- 17 -->
<g id="node18" class="node">
<title>17</title>
<path fill="#e58139" stroke="#000000" d="M565.4811,-272.6014C565.4811,-272.6014 484.8393,-272.6014 484.8393,-272.6014 478.8393,-272.6014 472.8393,-266.6014 472.8393,-260.6014 472.8393,-260.6014 472.8393,-225.7986 472.8393,-225.7986 472.8393,-219.7986 478.8393,-213.7986 484.8393,-213.7986 484.8393,-213.7986 565.4811,-213.7986 565.4811,-213.7986 571.4811,-213.7986 577.4811,-219.7986 577.4811,-225.7986 577.4811,-225.7986 577.4811,-260.6014 577.4811,-260.6014 577.4811,-266.6014 571.4811,-272.6014 565.4811,-272.6014"/>
<text text-anchor="middle" x="525.1602" y="-255.8" font-family="Helvetica,sans-Serif" font-size="14.00" fill="#000000">gini = 0.0</text>
<text text-anchor="middle" x="525.1602" y="-239" font-family="Helvetica,sans-Serif" font-size="14.00" fill="#000000">samples = 29</text>
<text text-anchor="middle" x="525.1602" y="-222.2" font-family="Helvetica,sans-Serif" font-size="14.00" fill="#000000">value = [29, 0]</text>
</g>
<!-- 16&#45;&gt;17 -->
<g id="edge17" class="edge">
<title>16&#45;&gt;17</title>
<path fill="none" stroke="#000000" d="M530.4518,-316.7528C529.6686,-305.8662 528.8113,-293.951 528.0193,-282.9411"/>
<polygon fill="#000000" stroke="#000000" points="531.493,-282.4489 527.2844,-272.7258 524.511,-282.9512 531.493,-282.4489"/>
</g>
<!-- 18 -->
<g id="node19" class="node">
<title>18</title>
<path fill="#42a1e6" stroke="#000000" d="M703.0459,-280.9003C703.0459,-280.9003 607.2745,-280.9003 607.2745,-280.9003 601.2745,-280.9003 595.2745,-274.9003 595.2745,-268.9003 595.2745,-268.9003 595.2745,-217.4997 595.2745,-217.4997 595.2745,-211.4997 601.2745,-205.4997 607.2745,-205.4997 607.2745,-205.4997 703.0459,-205.4997 703.0459,-205.4997 709.0459,-205.4997 715.0459,-211.4997 715.0459,-217.4997 715.0459,-217.4997 715.0459,-268.9003 715.0459,-268.9003 715.0459,-274.9003 709.0459,-280.9003 703.0459,-280.9003"/>
<text text-anchor="middle" x="655.1602" y="-264.2" font-family="Helvetica,sans-Serif" font-size="14.00" fill="#000000">X[2] &lt;= 463.5</text>
<text text-anchor="middle" x="655.1602" y="-247.4" font-family="Helvetica,sans-Serif" font-size="14.00" fill="#000000">gini = 0.082</text>
<text text-anchor="middle" x="655.1602" y="-230.6" font-family="Helvetica,sans-Serif" font-size="14.00" fill="#000000">samples = 234</text>
<text text-anchor="middle" x="655.1602" y="-213.8" font-family="Helvetica,sans-Serif" font-size="14.00" fill="#000000">value = [10, 224]</text>
</g>
<!-- 16&#45;&gt;18 -->
<g id="edge18" class="edge">
<title>16&#45;&gt;18</title>
<path fill="none" stroke="#000000" d="M574.4638,-316.7528C584.699,-307.4237 595.7629,-297.3392 606.3203,-287.7164"/>
<polygon fill="#000000" stroke="#000000" points="608.8662,-290.1316 613.8991,-280.8085 604.1507,-284.9582 608.8662,-290.1316"/>
</g>
<!-- 19 -->
<g id="node20" class="node">
<title>19</title>
<path fill="#399de5" stroke="#000000" d="M696.2632,-161.4014C696.2632,-161.4014 608.0572,-161.4014 608.0572,-161.4014 602.0572,-161.4014 596.0572,-155.4014 596.0572,-149.4014 596.0572,-149.4014 596.0572,-114.5986 596.0572,-114.5986 596.0572,-108.5986 602.0572,-102.5986 608.0572,-102.5986 608.0572,-102.5986 696.2632,-102.5986 696.2632,-102.5986 702.2632,-102.5986 708.2632,-108.5986 708.2632,-114.5986 708.2632,-114.5986 708.2632,-149.4014 708.2632,-149.4014 708.2632,-155.4014 702.2632,-161.4014 696.2632,-161.4014"/>
<text text-anchor="middle" x="652.1602" y="-144.6" font-family="Helvetica,sans-Serif" font-size="14.00" fill="#000000">gini = 0.0</text>
<text text-anchor="middle" x="652.1602" y="-127.8" font-family="Helvetica,sans-Serif" font-size="14.00" fill="#000000">samples = 224</text>
<text text-anchor="middle" x="652.1602" y="-111" font-family="Helvetica,sans-Serif" font-size="14.00" fill="#000000">value = [0, 224]</text>
</g>
<!-- 18&#45;&gt;19 -->
<g id="edge19" class="edge">
<title>18&#45;&gt;19</title>
<path fill="none" stroke="#000000" d="M654.1445,-205.5528C653.8508,-194.6662 653.5294,-182.751 653.2324,-171.7411"/>
<polygon fill="#000000" stroke="#000000" points="656.7253,-171.4278 652.9568,-161.5258 649.7278,-171.6166 656.7253,-171.4278"/>
</g>
<!-- 20 -->
<g id="node21" class="node">
<title>20</title>
<path fill="#e58139" stroke="#000000" d="M818.4811,-161.4014C818.4811,-161.4014 737.8393,-161.4014 737.8393,-161.4014 731.8393,-161.4014 725.8393,-155.4014 725.8393,-149.4014 725.8393,-149.4014 725.8393,-114.5986 725.8393,-114.5986 725.8393,-108.5986 731.8393,-102.5986 737.8393,-102.5986 737.8393,-102.5986 818.4811,-102.5986 818.4811,-102.5986 824.4811,-102.5986 830.4811,-108.5986 830.4811,-114.5986 830.4811,-114.5986 830.4811,-149.4014 830.4811,-149.4014 830.4811,-155.4014 824.4811,-161.4014 818.4811,-161.4014"/>
<text text-anchor="middle" x="778.1602" y="-144.6" font-family="Helvetica,sans-Serif" font-size="14.00" fill="#000000">gini = 0.0</text>
<text text-anchor="middle" x="778.1602" y="-127.8" font-family="Helvetica,sans-Serif" font-size="14.00" fill="#000000">samples = 10</text>
<text text-anchor="middle" x="778.1602" y="-111" font-family="Helvetica,sans-Serif" font-size="14.00" fill="#000000">value = [10, 0]</text>
</g>
<!-- 18&#45;&gt;20 -->
<g id="edge20" class="edge">
<title>18&#45;&gt;20</title>
<path fill="none" stroke="#000000" d="M696.8024,-205.5528C710.0856,-193.5439 724.7533,-180.2833 737.9341,-168.367"/>
<polygon fill="#000000" stroke="#000000" points="740.4305,-170.8284 745.5012,-161.5258 735.7361,-165.6359 740.4305,-170.8284"/>
</g>
<!-- 22 -->
<g id="node23" class="node">
<title>22</title>
<path fill="#e88e4d" stroke="#000000" d="M1010.1118,-503.3003C1010.1118,-503.3003 898.2086,-503.3003 898.2086,-503.3003 892.2086,-503.3003 886.2086,-497.3003 886.2086,-491.3003 886.2086,-491.3003 886.2086,-439.8997 886.2086,-439.8997 886.2086,-433.8997 892.2086,-427.8997 898.2086,-427.8997 898.2086,-427.8997 1010.1118,-427.8997 1010.1118,-427.8997 1016.1118,-427.8997 1022.1118,-433.8997 1022.1118,-439.8997 1022.1118,-439.8997 1022.1118,-491.3003 1022.1118,-491.3003 1022.1118,-497.3003 1016.1118,-503.3003 1010.1118,-503.3003"/>
<text text-anchor="middle" x="954.1602" y="-486.6" font-family="Helvetica,sans-Serif" font-size="14.00" fill="#000000">X[12] &lt;= 1657.5</text>
<text text-anchor="middle" x="954.1602" y="-469.8" font-family="Helvetica,sans-Serif" font-size="14.00" fill="#000000">gini = 0.165</text>
<text text-anchor="middle" x="954.1602" y="-453" font-family="Helvetica,sans-Serif" font-size="14.00" fill="#000000">samples = 1671</text>
<text text-anchor="middle" x="954.1602" y="-436.2" font-family="Helvetica,sans-Serif" font-size="14.00" fill="#000000">value = [1519, 152]</text>
</g>
<!-- 21&#45;&gt;22 -->
<g id="edge22" class="edge">
<title>21&#45;&gt;22</title>
<path fill="none" stroke="#000000" d="M954.1602,-539.1528C954.1602,-530.82 954.1602,-521.8845 954.1602,-513.2137"/>
<polygon fill="#000000" stroke="#000000" points="957.6603,-513.2084 954.1602,-503.2085 950.6603,-513.2085 957.6603,-513.2084"/>
</g>
<!-- 31 -->
<g id="node32" class="node">
<title>31</title>
<path fill="#41a1e6" stroke="#000000" d="M1214.8288,-503.3003C1214.8288,-503.3003 1111.4916,-503.3003 1111.4916,-503.3003 1105.4916,-503.3003 1099.4916,-497.3003 1099.4916,-491.3003 1099.4916,-491.3003 1099.4916,-439.8997 1099.4916,-439.8997 1099.4916,-433.8997 1105.4916,-427.8997 1111.4916,-427.8997 1111.4916,-427.8997 1214.8288,-427.8997 1214.8288,-427.8997 1220.8288,-427.8997 1226.8288,-433.8997 1226.8288,-439.8997 1226.8288,-439.8997 1226.8288,-491.3003 1226.8288,-491.3003 1226.8288,-497.3003 1220.8288,-503.3003 1214.8288,-503.3003"/>
<text text-anchor="middle" x="1163.1602" y="-486.6" font-family="Helvetica,sans-Serif" font-size="14.00" fill="#000000">X[11] &lt;= 0.034</text>
<text text-anchor="middle" x="1163.1602" y="-469.8" font-family="Helvetica,sans-Serif" font-size="14.00" fill="#000000">gini = 0.074</text>
<text text-anchor="middle" x="1163.1602" y="-453" font-family="Helvetica,sans-Serif" font-size="14.00" fill="#000000">samples = 2460</text>
<text text-anchor="middle" x="1163.1602" y="-436.2" font-family="Helvetica,sans-Serif" font-size="14.00" fill="#000000">value = [94, 2366]</text>
</g>
<!-- 21&#45;&gt;31 -->
<g id="edge31" class="edge">
<title>21&#45;&gt;31</title>
<path fill="none" stroke="#000000" d="M1024.9181,-539.1528C1045.9529,-527.961 1069.0311,-515.6821 1090.2031,-504.4173"/>
<polygon fill="#000000" stroke="#000000" points="1091.9645,-507.4449 1099.1487,-499.6578 1088.6764,-501.2651 1091.9645,-507.4449"/>
</g>
<!-- 23 -->
<g id="node24" class="node">
<title>23</title>
<path fill="#4ba6e7" stroke="#000000" d="M935.4811,-392.1003C935.4811,-392.1003 854.8393,-392.1003 854.8393,-392.1003 848.8393,-392.1003 842.8393,-386.1003 842.8393,-380.1003 842.8393,-380.1003 842.8393,-328.6997 842.8393,-328.6997 842.8393,-322.6997 848.8393,-316.6997 854.8393,-316.6997 854.8393,-316.6997 935.4811,-316.6997 935.4811,-316.6997 941.4811,-316.6997 947.4811,-322.6997 947.4811,-328.6997 947.4811,-328.6997 947.4811,-380.1003 947.4811,-380.1003 947.4811,-386.1003 941.4811,-392.1003 935.4811,-392.1003"/>
<text text-anchor="middle" x="895.1602" y="-375.4" font-family="Helvetica,sans-Serif" font-size="14.00" fill="#000000">X[12] &lt;= 32.5</text>
<text text-anchor="middle" x="895.1602" y="-358.6" font-family="Helvetica,sans-Serif" font-size="14.00" fill="#000000">gini = 0.154</text>
<text text-anchor="middle" x="895.1602" y="-341.8" font-family="Helvetica,sans-Serif" font-size="14.00" fill="#000000">samples = 83</text>
<text text-anchor="middle" x="895.1602" y="-325" font-family="Helvetica,sans-Serif" font-size="14.00" fill="#000000">value = [7, 76]</text>
</g>
<!-- 22&#45;&gt;23 -->
<g id="edge23" class="edge">
<title>22&#45;&gt;23</title>
<path fill="none" stroke="#000000" d="M934.1855,-427.9528C929.5721,-419.2577 924.6105,-409.9064 919.8236,-400.8843"/>
<polygon fill="#000000" stroke="#000000" points="922.8931,-399.2017 915.1143,-392.0085 916.7095,-402.4825 922.8931,-399.2017"/>
</g>
<!-- 26 -->
<g id="node27" class="node">
<title>26</title>
<path fill="#e68743" stroke="#000000" d="M1080.8288,-392.1003C1080.8288,-392.1003 977.4916,-392.1003 977.4916,-392.1003 971.4916,-392.1003 965.4916,-386.1003 965.4916,-380.1003 965.4916,-380.1003 965.4916,-328.6997 965.4916,-328.6997 965.4916,-322.6997 971.4916,-316.6997 977.4916,-316.6997 977.4916,-316.6997 1080.8288,-316.6997 1080.8288,-316.6997 1086.8288,-316.6997 1092.8288,-322.6997 1092.8288,-328.6997 1092.8288,-328.6997 1092.8288,-380.1003 1092.8288,-380.1003 1092.8288,-386.1003 1086.8288,-392.1003 1080.8288,-392.1003"/>
<text text-anchor="middle" x="1029.1602" y="-375.4" font-family="Helvetica,sans-Serif" font-size="14.00" fill="#000000">X[6] &lt;= 938.176</text>
<text text-anchor="middle" x="1029.1602" y="-358.6" font-family="Helvetica,sans-Serif" font-size="14.00" fill="#000000">gini = 0.091</text>
<text text-anchor="middle" x="1029.1602" y="-341.8" font-family="Helvetica,sans-Serif" font-size="14.00" fill="#000000">samples = 1588</text>
<text text-anchor="middle" x="1029.1602" y="-325" font-family="Helvetica,sans-Serif" font-size="14.00" fill="#000000">value = [1512, 76]</text>
</g>
<!-- 22&#45;&gt;26 -->
<g id="edge26" class="edge">
<title>22&#45;&gt;26</title>
<path fill="none" stroke="#000000" d="M979.5518,-427.9528C985.5384,-419.0765 991.9863,-409.5165 998.1884,-400.3209"/>
<polygon fill="#000000" stroke="#000000" points="1001.1048,-402.2561 1003.7948,-392.0085 995.3014,-398.342 1001.1048,-402.2561"/>
</g>
<!-- 24 -->
<g id="node25" class="node">
<title>24</title>
<path fill="#e58139" stroke="#000000" d="M817.1991,-272.6014C817.1991,-272.6014 745.1213,-272.6014 745.1213,-272.6014 739.1213,-272.6014 733.1213,-266.6014 733.1213,-260.6014 733.1213,-260.6014 733.1213,-225.7986 733.1213,-225.7986 733.1213,-219.7986 739.1213,-213.7986 745.1213,-213.7986 745.1213,-213.7986 817.1991,-213.7986 817.1991,-213.7986 823.1991,-213.7986 829.1991,-219.7986 829.1991,-225.7986 829.1991,-225.7986 829.1991,-260.6014 829.1991,-260.6014 829.1991,-266.6014 823.1991,-272.6014 817.1991,-272.6014"/>
<text text-anchor="middle" x="781.1602" y="-255.8" font-family="Helvetica,sans-Serif" font-size="14.00" fill="#000000">gini = 0.0</text>
<text text-anchor="middle" x="781.1602" y="-239" font-family="Helvetica,sans-Serif" font-size="14.00" fill="#000000">samples = 7</text>
<text text-anchor="middle" x="781.1602" y="-222.2" font-family="Helvetica,sans-Serif" font-size="14.00" fill="#000000">value = [7, 0]</text>
</g>
<!-- 23&#45;&gt;24 -->
<g id="edge24" class="edge">
<title>23&#45;&gt;24</title>
<path fill="none" stroke="#000000" d="M856.565,-316.7528C844.3688,-304.8561 830.9132,-291.731 818.7858,-279.9014"/>
<polygon fill="#000000" stroke="#000000" points="821.0319,-277.203 811.4295,-272.7258 816.144,-282.2139 821.0319,-277.203"/>
</g>
<!-- 25 -->
<g id="node26" class="node">
<title>25</title>
<path fill="#399de5" stroke="#000000" d="M939.4811,-272.6014C939.4811,-272.6014 858.8393,-272.6014 858.8393,-272.6014 852.8393,-272.6014 846.8393,-266.6014 846.8393,-260.6014 846.8393,-260.6014 846.8393,-225.7986 846.8393,-225.7986 846.8393,-219.7986 852.8393,-213.7986 858.8393,-213.7986 858.8393,-213.7986 939.4811,-213.7986 939.4811,-213.7986 945.4811,-213.7986 951.4811,-219.7986 951.4811,-225.7986 951.4811,-225.7986 951.4811,-260.6014 951.4811,-260.6014 951.4811,-266.6014 945.4811,-272.6014 939.4811,-272.6014"/>
<text text-anchor="middle" x="899.1602" y="-255.8" font-family="Helvetica,sans-Serif" font-size="14.00" fill="#000000">gini = 0.0</text>
<text text-anchor="middle" x="899.1602" y="-239" font-family="Helvetica,sans-Serif" font-size="14.00" fill="#000000">samples = 76</text>
<text text-anchor="middle" x="899.1602" y="-222.2" font-family="Helvetica,sans-Serif" font-size="14.00" fill="#000000">value = [0, 76]</text>
</g>
<!-- 23&#45;&gt;25 -->
<g id="edge25" class="edge">
<title>23&#45;&gt;25</title>
<path fill="none" stroke="#000000" d="M896.5144,-316.7528C896.906,-305.8662 897.3346,-293.951 897.7307,-282.9411"/>
<polygon fill="#000000" stroke="#000000" points="901.2363,-282.8452 898.0981,-272.7258 894.2408,-282.5935 901.2363,-282.8452"/>
</g>
<!-- 27 -->
<g id="node28" class="node">
<title>27</title>
<path fill="#e58139" stroke="#000000" d="M1077.0459,-272.6014C1077.0459,-272.6014 981.2745,-272.6014 981.2745,-272.6014 975.2745,-272.6014 969.2745,-266.6014 969.2745,-260.6014 969.2745,-260.6014 969.2745,-225.7986 969.2745,-225.7986 969.2745,-219.7986 975.2745,-213.7986 981.2745,-213.7986 981.2745,-213.7986 1077.0459,-213.7986 1077.0459,-213.7986 1083.0459,-213.7986 1089.0459,-219.7986 1089.0459,-225.7986 1089.0459,-225.7986 1089.0459,-260.6014 1089.0459,-260.6014 1089.0459,-266.6014 1083.0459,-272.6014 1077.0459,-272.6014"/>
<text text-anchor="middle" x="1029.1602" y="-255.8" font-family="Helvetica,sans-Serif" font-size="14.00" fill="#000000">gini = 0.0</text>
<text text-anchor="middle" x="1029.1602" y="-239" font-family="Helvetica,sans-Serif" font-size="14.00" fill="#000000">samples = 1347</text>
<text text-anchor="middle" x="1029.1602" y="-222.2" font-family="Helvetica,sans-Serif" font-size="14.00" fill="#000000">value = [1347, 0]</text>
</g>
<!-- 26&#45;&gt;27 -->
<g id="edge27" class="edge">
<title>26&#45;&gt;27</title>
<path fill="none" stroke="#000000" d="M1029.1602,-316.7528C1029.1602,-305.8662 1029.1602,-293.951 1029.1602,-282.9411"/>
<polygon fill="#000000" stroke="#000000" points="1032.6603,-282.7258 1029.1602,-272.7258 1025.6603,-282.7259 1032.6603,-282.7258"/>
</g>
<!-- 28 -->
<g id="node29" class="node">
<title>28</title>
<path fill="#f1bb94" stroke="#000000" d="M1215.0459,-280.9003C1215.0459,-280.9003 1119.2745,-280.9003 1119.2745,-280.9003 1113.2745,-280.9003 1107.2745,-274.9003 1107.2745,-268.9003 1107.2745,-268.9003 1107.2745,-217.4997 1107.2745,-217.4997 1107.2745,-211.4997 1113.2745,-205.4997 1119.2745,-205.4997 1119.2745,-205.4997 1215.0459,-205.4997 1215.0459,-205.4997 1221.0459,-205.4997 1227.0459,-211.4997 1227.0459,-217.4997 1227.0459,-217.4997 1227.0459,-268.9003 1227.0459,-268.9003 1227.0459,-274.9003 1221.0459,-280.9003 1215.0459,-280.9003"/>
<text text-anchor="middle" x="1167.1602" y="-264.2" font-family="Helvetica,sans-Serif" font-size="14.00" fill="#000000">X[12] &lt;= 3177.5</text>
<text text-anchor="middle" x="1167.1602" y="-247.4" font-family="Helvetica,sans-Serif" font-size="14.00" fill="#000000">gini = 0.432</text>
<text text-anchor="middle" x="1167.1602" y="-230.6" font-family="Helvetica,sans-Serif" font-size="14.00" fill="#000000">samples = 241</text>
<text text-anchor="middle" x="1167.1602" y="-213.8" font-family="Helvetica,sans-Serif" font-size="14.00" fill="#000000">value = [165, 76]</text>
</g>
<!-- 26&#45;&gt;28 -->
<g id="edge28" class="edge">
<title>26&#45;&gt;28</title>
<path fill="none" stroke="#000000" d="M1075.8807,-316.7528C1087.683,-307.2425 1100.4595,-296.9473 1112.61,-287.1564"/>
<polygon fill="#000000" stroke="#000000" points="1114.8972,-289.8083 1120.4878,-280.8085 1110.5051,-284.3576 1114.8972,-289.8083"/>
</g>
<!-- 29 -->
<g id="node30" class="node">
<title>29</title>
<path fill="#e58139" stroke="#000000" d="M1148.2632,-161.4014C1148.2632,-161.4014 1060.0572,-161.4014 1060.0572,-161.4014 1054.0572,-161.4014 1048.0572,-155.4014 1048.0572,-149.4014 1048.0572,-149.4014 1048.0572,-114.5986 1048.0572,-114.5986 1048.0572,-108.5986 1054.0572,-102.5986 1060.0572,-102.5986 1060.0572,-102.5986 1148.2632,-102.5986 1148.2632,-102.5986 1154.2632,-102.5986 1160.2632,-108.5986 1160.2632,-114.5986 1160.2632,-114.5986 1160.2632,-149.4014 1160.2632,-149.4014 1160.2632,-155.4014 1154.2632,-161.4014 1148.2632,-161.4014"/>
<text text-anchor="middle" x="1104.1602" y="-144.6" font-family="Helvetica,sans-Serif" font-size="14.00" fill="#000000">gini = 0.0</text>
<text text-anchor="middle" x="1104.1602" y="-127.8" font-family="Helvetica,sans-Serif" font-size="14.00" fill="#000000">samples = 165</text>
<text text-anchor="middle" x="1104.1602" y="-111" font-family="Helvetica,sans-Serif" font-size="14.00" fill="#000000">value = [165, 0]</text>
</g>
<!-- 28&#45;&gt;29 -->
<g id="edge29" class="edge">
<title>28&#45;&gt;29</title>
<path fill="none" stroke="#000000" d="M1145.8313,-205.5528C1139.4092,-194.2173 1132.3553,-181.7665 1125.9064,-170.3838"/>
<polygon fill="#000000" stroke="#000000" points="1128.8626,-168.5012 1120.888,-161.5258 1122.7721,-171.9518 1128.8626,-168.5012"/>
</g>
<!-- 30 -->
<g id="node31" class="node">
<title>30</title>
<path fill="#399de5" stroke="#000000" d="M1270.4811,-161.4014C1270.4811,-161.4014 1189.8393,-161.4014 1189.8393,-161.4014 1183.8393,-161.4014 1177.8393,-155.4014 1177.8393,-149.4014 1177.8393,-149.4014 1177.8393,-114.5986 1177.8393,-114.5986 1177.8393,-108.5986 1183.8393,-102.5986 1189.8393,-102.5986 1189.8393,-102.5986 1270.4811,-102.5986 1270.4811,-102.5986 1276.4811,-102.5986 1282.4811,-108.5986 1282.4811,-114.5986 1282.4811,-114.5986 1282.4811,-149.4014 1282.4811,-149.4014 1282.4811,-155.4014 1276.4811,-161.4014 1270.4811,-161.4014"/>
<text text-anchor="middle" x="1230.1602" y="-144.6" font-family="Helvetica,sans-Serif" font-size="14.00" fill="#000000">gini = 0.0</text>
<text text-anchor="middle" x="1230.1602" y="-127.8" font-family="Helvetica,sans-Serif" font-size="14.00" fill="#000000">samples = 76</text>
<text text-anchor="middle" x="1230.1602" y="-111" font-family="Helvetica,sans-Serif" font-size="14.00" fill="#000000">value = [0, 76]</text>
</g>
<!-- 28&#45;&gt;30 -->
<g id="edge30" class="edge">
<title>28&#45;&gt;30</title>
<path fill="none" stroke="#000000" d="M1188.4891,-205.5528C1194.9112,-194.2173 1201.9651,-181.7665 1208.414,-170.3838"/>
<polygon fill="#000000" stroke="#000000" points="1211.5483,-171.9518 1213.4324,-161.5258 1205.4578,-168.5012 1211.5483,-171.9518"/>
</g>
<!-- 32 -->
<g id="node33" class="node">
<title>32</title>
<path fill="#e58139" stroke="#000000" d="M1203.4811,-383.8014C1203.4811,-383.8014 1122.8393,-383.8014 1122.8393,-383.8014 1116.8393,-383.8014 1110.8393,-377.8014 1110.8393,-371.8014 1110.8393,-371.8014 1110.8393,-336.9986 1110.8393,-336.9986 1110.8393,-330.9986 1116.8393,-324.9986 1122.8393,-324.9986 1122.8393,-324.9986 1203.4811,-324.9986 1203.4811,-324.9986 1209.4811,-324.9986 1215.4811,-330.9986 1215.4811,-336.9986 1215.4811,-336.9986 1215.4811,-371.8014 1215.4811,-371.8014 1215.4811,-377.8014 1209.4811,-383.8014 1203.4811,-383.8014"/>
<text text-anchor="middle" x="1163.1602" y="-367" font-family="Helvetica,sans-Serif" font-size="14.00" fill="#000000">gini = 0.0</text>
<text text-anchor="middle" x="1163.1602" y="-350.2" font-family="Helvetica,sans-Serif" font-size="14.00" fill="#000000">samples = 94</text>
<text text-anchor="middle" x="1163.1602" y="-333.4" font-family="Helvetica,sans-Serif" font-size="14.00" fill="#000000">value = [94, 0]</text>
</g>
<!-- 31&#45;&gt;32 -->
<g id="edge32" class="edge">
<title>31&#45;&gt;32</title>
<path fill="none" stroke="#000000" d="M1163.1602,-427.9528C1163.1602,-417.0662 1163.1602,-405.151 1163.1602,-394.1411"/>
<polygon fill="#000000" stroke="#000000" points="1166.6603,-393.9258 1163.1602,-383.9258 1159.6603,-393.9259 1166.6603,-393.9258"/>
</g>
<!-- 33 -->
<g id="node34" class="node">
<title>33</title>
<path fill="#399de5" stroke="#000000" d="M1341.0459,-383.8014C1341.0459,-383.8014 1245.2745,-383.8014 1245.2745,-383.8014 1239.2745,-383.8014 1233.2745,-377.8014 1233.2745,-371.8014 1233.2745,-371.8014 1233.2745,-336.9986 1233.2745,-336.9986 1233.2745,-330.9986 1239.2745,-324.9986 1245.2745,-324.9986 1245.2745,-324.9986 1341.0459,-324.9986 1341.0459,-324.9986 1347.0459,-324.9986 1353.0459,-330.9986 1353.0459,-336.9986 1353.0459,-336.9986 1353.0459,-371.8014 1353.0459,-371.8014 1353.0459,-377.8014 1347.0459,-383.8014 1341.0459,-383.8014"/>
<text text-anchor="middle" x="1293.1602" y="-367" font-family="Helvetica,sans-Serif" font-size="14.00" fill="#000000">gini = 0.0</text>
<text text-anchor="middle" x="1293.1602" y="-350.2" font-family="Helvetica,sans-Serif" font-size="14.00" fill="#000000">samples = 2366</text>
<text text-anchor="middle" x="1293.1602" y="-333.4" font-family="Helvetica,sans-Serif" font-size="14.00" fill="#000000">value = [0, 2366]</text>
</g>
<!-- 31&#45;&gt;33 -->
<g id="edge33" class="edge">
<title>31&#45;&gt;33</title>
<path fill="none" stroke="#000000" d="M1207.1723,-427.9528C1221.3426,-415.8316 1237.0038,-402.4353 1251.035,-390.4332"/>
<polygon fill="#000000" stroke="#000000" points="1253.3185,-393.0858 1258.6426,-383.9258 1248.7683,-387.7664 1253.3185,-393.0858"/>
</g>
</g>
</svg>
